HIERARCHY
ROOT Hips
{
	OFFSET 0.00000 0.00000 0.00000
	CHANNELS 6 Xposition Yposition Zposition Zrotation Yrotation Xrotation 
	JOINT LHipJoint
	{
		OFFSET 0 0 0
		CHANNELS 3 Zrotation Yrotation Xrotation
		JOINT LeftUpLeg
		{
			OFFSET 1.51378 -1.89840 0.47569
			CHANNELS 3 Zrotation Yrotation Xrotation
			JOINT LeftLeg
			{
				OFFSET 2.53380 -6.96157 0.00000
				CHANNELS 3 Zrotation Yrotation Xrotation
				JOINT LeftFoot
				{
					OFFSET 2.74874 -7.55212 0.00000
					CHANNELS 3 Zrotation Yrotation Xrotation
					JOINT LeftToeBase
					{
						OFFSET 0.18263 -0.50178 1.99677
						CHANNELS 3 Zrotation Yrotation Xrotation
						End Site
						{
							OFFSET 0.00000 -0.00000 1.03711
						}
					}
				}
			}
		}
	}
	JOINT RHipJoint
	{
		OFFSET 0 0 0
		CHANNELS 3 Zrotation Yrotation Xrotation
		JOINT RightUpLeg
		{
			OFFSET -1.43037 -1.89840 0.47569
			CHANNELS 3 Zrotation Yrotation Xrotation
			JOINT RightLeg
			{
				OFFSET -2.69849 -7.41406 0.00000
				CHANNELS 3 Zrotation Yrotation Xrotation
				JOINT RightFoot
				{
					OFFSET -2.69369 -7.40087 0.00000
					CHANNELS 3 Zrotation Yrotation Xrotation
					JOINT RightToeBase
					{
						OFFSET -0.28932 -0.79491 2.04975
						CHANNELS 3 Zrotation Yrotation Xrotation
						End Site
						{
							OFFSET 0.00009 0.00010 1.09536
						}
					}
				}
			}
		}
	}
	JOINT LowerBack
	{
		OFFSET 0 0 0
		CHANNELS 3 Zrotation Yrotation Xrotation
		JOINT Spine
		{
			OFFSET 0.01912 1.94784 -0.02419
			CHANNELS 3 Zrotation Yrotation Xrotation
			JOINT Spine1
			{
				OFFSET 0.07565 1.94258 0.01909
				CHANNELS 3 Zrotation Yrotation Xrotation
				JOINT Neck
				{
					OFFSET 0 0 0
					CHANNELS 3 Zrotation Yrotation Xrotation
					JOINT Neck1
					{
						OFFSET -0.07010 1.86195 0.18976
						CHANNELS 3 Zrotation Yrotation Xrotation
						JOINT Head
						{
							OFFSET 0.02284 1.86595 -0.31497
							CHANNELS 3 Zrotation Yrotation Xrotation
							End Site
							{
								OFFSET 0.01200 1.90122 -0.12838
							}
						}
					}
				}
				JOINT LeftShoulder
				{
					OFFSET 0 0 0
					CHANNELS 3 Zrotation Yrotation Xrotation
					JOINT LeftArm
					{
						OFFSET 3.39189 0.96331 -0.10437
						CHANNELS 3 Zrotation Yrotation Xrotation
						JOINT LeftForeArm
						{
							OFFSET 5.14845 -0.00000 0.00000
							CHANNELS 3 Zrotation Yrotation Xrotation
							JOINT LeftHand
							{
								OFFSET 3.43674 -0.00000 -0.00000
								CHANNELS 3 Zrotation Yrotation Xrotation
								JOINT LeftFingerBase
								{
									OFFSET 0 0 0
									CHANNELS 3 Zrotation Yrotation Xrotation
									JOINT LeftHandIndex1
									{
										OFFSET 0.58871 -0.00000 0.00000
										CHANNELS 3 Zrotation Yrotation Xrotation
										End Site
										{
											OFFSET 0.47463 -0.00000 0.00000
										}
									}
								}
								JOINT LThumb
								{
									OFFSET 0 0 0
									CHANNELS 3 Zrotation Yrotation Xrotation
									End Site
									{
										OFFSET 0.48188 -0.00000 0.48188
									}
								}
							}
						}
					}
				}
				JOINT RightShoulder
				{
					OFFSET 0 0 0
					CHANNELS 3 Zrotation Yrotation Xrotation
					JOINT RightArm
					{
						OFFSET -3.34934 1.18831 -0.19928
						CHANNELS 3 Zrotation Yrotation Xrotation
						JOINT RightForeArm
						{
							OFFSET -5.42185 -0.00000 0.00000
							CHANNELS 3 Zrotation Yrotation Xrotation
							JOINT RightHand
							{
								OFFSET -3.51317 -0.00000 -0.00000
								CHANNELS 3 Zrotation Yrotation Xrotation
								JOINT RightFingerBase
								{
									OFFSET 0 0 0
									CHANNELS 3 Zrotation Yrotation Xrotation
									JOINT RightHandIndex1
									{
										OFFSET -0.66319 -0.00000 0.00000
										CHANNELS 3 Zrotation Yrotation Xrotation
										End Site
										{
											OFFSET -0.53468 -0.00000 0.00000
										}
									}
								}
								JOINT RThumb
								{
									OFFSET 0 0 0
									CHANNELS 3 Zrotation Yrotation Xrotation
									End Site
									{
										OFFSET -0.54284 -0.00000 0.54284
									}
								}
							}
						}
					}
				}
			}
		}
	}
}
MOTION
Frames: 15
Frame Time: 0.0512821
0.00 0.00 0.00 0 0 0 0 0 0 -21 0 0 0 0 0 0 0 0 0 0 0 0 0 0 21 0 0 0 0 0 0 0 0 0 0 0 0 0 0 0 0 0 0 0 0 0 0 -16 0 0 21 0 0 11 0 0 0 -8 0 0 0 0 0 0 0 0 0 0 0 0 0 0 0 0 0 0 0 0 8 0 0 0 0 0 0 0 0 0 0 0 0 0 0 0 0 0
0.00 0.00 0.00 -3.0969 -53.5110 12.6905 0.0000 0.0000 0.0000 -17.1885 -4.9497 -23.2186 5.3064 13.7207 42.1301 1.0802 2.7544 -20.8054 0.4778 -4.4328 -12.2976 0.0000 0.0000 0.0000 28.7121 8.5649 -17.2102 -3.8017 -11.8917 35.3500 -2.4838 -2.3597 -30.7105 -0.0007 0.1678 -0.4610 -1.5799 0.9901 -0.9071 3.3363 1.3032 0.0526 4.3370 0.6380 0.4493 -3.1776 0.5970 -14.8046 -4.0203 2.5542 25.8174 -0.5801 0.2653 10.7982 -0.0000 -0.0000 0.0000 -92.4528 4.4193 17.9034 18.7799 -29.1443 -4.9232 -0.0000 0.0000 -3.1861 20.4228 24.5131 8.7821 -7.1250 0.0000 -0.0000 -9.7655 55.6601 -2.5724 -0.0000 -0.0000 0.0000 88.0133 -0.6474 23.8908 -16.4548 26.1334 -3.8441 0.0000 -0.0000 -2.2438 -26.2964 11.1247 -5.4464 7.1250 -0.0000 -0.0000 0.5728 -17.6089 0.3727
0.00 0.00 0.00 -3.8782 -54.7782 14.8145 0.0000 0.0000 0.0000 -11.8345 -13.7194 -35.6700 0.6720 5.2419 14.5998 0.2123 2.5559 -10.0331 0.8200 -5.7779 -16.1415 0.0000 0.0000 0.0000 30.1582 4.4750 -5.7627 -2.0226 -8.9131 25.5237 -2.6548 -0.1849 -30.9517 -0.0128 0.7296 -2.0050 -0.7729 3.2134 -0.2072 2.7592 4.2491 1.1282 3.3014 2.0990 1.0072 -4.1061 -0.6691 -12.7657 -4.2269 0.9248 26.3840 -0.7135 -0.5886 10.6030 0.0000 0.0000 0.0000 -94.3477 10.9144 11.3395 17.3912 -27.3706 -4.2657 -0.0000 0.0000 -1.6263 18.8266 24.4854 8.0431 -7.1250 0.0000 -0.0000 -11.4069 55.3107 -2.9151 0.0000 0.0000 0.0000 86.2070 6.7550 30.5546 -25.4128 36.6229 -8.5349 0.0000 -0.0000 -9.0407 -27.8352 12.6250 -6.5834 7.1250 -0.0000 -0.0000 -0.3840 -15.7664 -0.2652
0.00 0.00 0.00 -1.7528 -56.6086 12.7121 0.0000 0.0000 0.0000 -14.6697 -15.5877 -32.9316 1.4897 7.7105 21.8383 -0.0015 -2.1863 -1.4134 0.0003 0.1054 0.2895 0.0000 0.0000 0.0000 26.4763 2.6338 1.3083 -3.1607 -10.9507 32.1138 -0.9333 0.0503 -18.2492 -0.7174 5.4125 -15.0890 -2.2900 3.2660 0.7639 1.8155 4.3316 1.3470 3.1239 2.1366 0.6444 -4.6121 -1.5941 -12.9698 -2.6934 -0.6650 27.4730 -0.2980 -1.2169 11.0488 0.0000 -0.0000 0.0000 -94.4590 9.7459 0.4983 11.5755 -19.1649 -1.9607 -0.0000 -0.0000 8.7047 16.8848 25.2751 7.3843 -7.1250 0.0000 -0.0000 -13.7870 55.7086 -3.6732 0.0000 -0.0000 0.0000 87.8932 4.5895 26.6776 -21.0322 31.8660 -6.0670 0.0000 -0.0000 -6.7238 -26.8951 13.0398 -6.5287 7.1250 -0.0000 -0.0000 0.2953 -15.4224 0.2061
0.00 0.00 0.00 0.2068 -57.2262 10.3669 0.0000 0.0000 0.0000 -18.0245 -13.8069 -29.1412 1.6900 8.1880 23.2865 0.0337 -3.3849 -3.7681 0.0146 0.7797 2.1429 0.0000 0.0000 0.0000 23.5430 3.0617 -3.6183 -5.9175 -14.3479 44.6498 -0.0193 -0.3223 -2.7646 -0.0041 0.4134 -1.1360 -3.4133 3.1718 0.8665 1.5759 4.2052 1.2338 3.4946 2.0732 0.4184 -4.8563 -1.7871 -13.0042 -2.0002 -1.0793 27.8917 -0.0654 -1.3599 11.2222 0.0000 -0.0000 0.0000 -94.3253 10.0134 4.3389 12.5541 -20.6304 -2.2938 -0.0000 -0.0000 4.7172 16.7016 26.3014 7.5729 -7.1250 0.0000 -0.0000 -14.5217 56.6801 -4.2192 0.0000 -0.0000 0.0000 87.5645 1.9349 25.7890 -19.3442 29.8442 -5.2010 0.0000 -0.0000 -4.3790 -26.5369 13.1130 -6.4639 7.1250 -0.0000 -0.0000 0.5467 -15.3858 0.3821
0.00 0.00 0.00 1.1150 -57.5787 8.5797 0.0000 0.0000 0.0000 -20.3646 -12.5993 -24.7710 1.8560 8.5595 24.4268 0.1893 -3.5198 -7.7575 0.0160 -0.8161 -2.2430 0.0000 0.0000 0.0000 21.3202 5.3863 -11.5442 -10.4071 -17.6325 60.8407 -0.1704 -7.2938 8.3532 -0.7730 -5.6137 15.6677 -3.6412 2.4710 1.0941 1.5676 3.2624 1.4427 3.6241 1.5923 0.5747 -4.2422 -1.2436 -12.9406 -2.2210 -0.4150 27.5891 -0.1587 -1.0202 11.0768 -0.0000 -0.0000 0.0000 -93.8951 8.5635 7.7641 13.6663 -22.2557 -2.7004 -0.0000 -0.0000 2.8387 17.2444 24.9893 7.4705 -7.1250 0.0000 -0.0000 -13.2742 55.4981 -3.4647 -0.0000 -0.0000 0.0000 87.5272 0.3258 24.8645 -18.5001 28.7928 -4.7877 0.0000 -0.0000 -2.9101 -26.1144 12.3878 -6.0033 7.1250 -0.0000 -0.0000 0.7843 -16.2352 0.5338
0.00 0.00 0.00 1.0355 -56.8580 7.4644 0.0000 0.0000 0.0000 -22.6655 -9.9068 -18.7821 2.1234 9.1184 26.1665 0.6438 -4.4812 -14.3012 0.0654 -1.6500 -4.5393 0.0000 0.0000 0.0000 19.4644 7.8233 -26.7839 -15.4764 -19.5021 76.6675 0.3852 -11.1413 -6.4614 -0.5389 -4.7036 13.0650 -3.2943 1.0805 1.1710 2.1652 1.4023 1.2831 4.0663 0.6646 0.5279 -3.8094 -0.4667 -12.1710 -2.3127 0.5151 28.9005 -0.1564 -0.6206 11.4120 -0.0000 -0.0000 0.0000 -91.9109 2.2232 13.4530 14.0299 -22.7774 -2.8397 -0.0000 -0.0000 1.7211 18.3311 24.4019 7.7942 -7.1250 0.0000 -0.0000 -11.8775 55.1287 -2.9850 -0.0000 -0.0000 0.0000 86.7584 -3.0798 24.0545 -18.8784 29.2673 -4.9712 0.0000 -0.0000 -4.1532 -27.2223 12.5709 -6.3884 7.1250 -0.0000 -0.0000 0.0335 -15.9021 0.0230
0.00 0.00 0.00 1.1549 -55.3543 7.3095 0.0000 0.0000 0.0000 -24.0900 -8.4970 -14.6742 2.7934 10.3529 30.1273 1.3260 -6.2471 -20.6082 0.0005 0.1396 0.3837 0.0000 0.0000 0.0000 17.7715 11.3121 -39.2261 -11.6125 -18.2220 64.7550 -0.5868 -8.2723 -19.7761 -0.1295 -2.3198 6.3904 -2.7792 -0.3041 0.7685 2.6532 -0.4409 1.2433 4.2929 -0.2651 0.8880 -3.4317 -0.3255 -12.3692 -1.9847 0.5064 29.7040 -0.1117 -0.5765 11.7606 -0.0000 0.0000 0.0000 -89.1831 -6.4209 19.7108 16.3772 -26.0295 -3.8100 -0.0000 0.0000 -1.3546 18.8330 24.7112 8.1147 -7.1250 0.0000 -0.0000 -11.5054 55.5387 -3.0048 -0.0000 0.0000 0.0000 86.1054 -6.3935 22.2270 -19.4226 29.9404 -5.2401 0.0000 -0.0000 -4.7196 -27.5687 10.6714 -5.5221 7.1250 -0.0000 -0.0000 -0.3501 -17.9791 -0.2249
0.00 0.00 0.00 1.7049 -54.8241 6.9034 0.0000 0.0000 0.0000 -25.1417 -5.9931 -8.7009 2.1841 9.2394 26.5473 1.5000 -5.9805 -21.9767 0.0999 -2.0384 -5.6117 0.0000 0.0000 0.0000 17.1099 12.8201 -40.6044 -5.1206 -13.5183 41.3412 -0.1775 -8.6186 -15.1977 -0.0081 -0.5809 1.5962 -2.8945 -0.6805 0.7671 2.6596 -0.9463 1.4621 4.3624 -0.5293 1.1643 -3.0456 -0.2754 -12.3162 -1.4293 0.2999 29.8818 -0.0009 -0.5620 11.8142 -0.0000 0.0000 0.0000 -86.9767 -12.0494 24.9429 19.0974 -29.5395 -5.0788 -0.0000 0.0000 -5.3201 19.0187 25.2560 8.3664 -7.1250 0.0000 -0.0000 -11.5729 56.1231 -3.1876 -0.0000 0.0000 0.0000 86.6289 -7.8877 19.5869 -18.5772 28.8900 -4.8249 0.0000 -0.0000 -3.7749 -26.9278 12.2221 -6.1375 7.1250 -0.0000 -0.0000 0.2099 -16.3243 0.1425
0.00 0.00 0.00 2.5515 -53.9393 6.3454 0.0000 0.0000 0.0000 -25.7055 -3.9148 -4.8412 1.6530 8.1024 23.0254 1.3662 -7.5078 -20.8992 0.0485 -1.4213 -3.9088 0.0000 0.0000 0.0000 15.4089 14.8849 -38.3206 -2.1372 -9.1461 26.2535 0.2214 -9.5050 -8.4090 -0.0054 0.4764 -1.3089 -3.4005 -1.0456 0.8789 2.7639 -1.4368 1.3841 4.7583 -0.7782 1.0858 -3.1407 0.0426 -11.7348 -1.3061 0.7053 29.7658 0.1168 -0.3739 11.6441 -0.0000 0.0000 0.0000 -86.3903 -14.2351 27.1595 20.6236 -31.3864 -5.8527 -0.0000 0.0000 -7.4164 20.2313 24.7820 8.7818 -7.1250 0.0000 -0.0000 -10.0858 55.8942 -2.7155 -0.0000 0.0000 0.0000 86.5971 -8.9042 18.6934 -17.8517 27.9668 -4.4795 0.0000 -0.0000 -3.4416 -26.9621 12.0167 -6.0456 7.1250 -0.0000 -0.0000 0.1709 -16.5480 0.1152
0.00 0.00 0.00 -3.5404 -51.7463 10.1946 0.0000 0.0000 0.0000 -21.1863 -4.5457 1.7976 3.8145 11.9094 35.4121 -0.2018 -9.3041 -1.7794 1.0723 -6.5825 -18.4844 0.0000 0.0000 0.0000 20.8323 14.6468 -33.2998 -2.3839 -9.6237 27.7667 -0.1424 0.9651 -6.8503 -0.1675 2.6366 -7.2687 0.6972 -1.5021 1.5981 4.7396 -2.0948 1.9089 4.5032 -1.1025 1.2203 -2.6391 0.6147 -12.7250 -3.0767 1.9953 31.4591 -0.4759 -0.0235 12.5571 0.0000 0.0000 0.0000 -89.7884 -13.4227 28.9443 24.2771 -35.4560 -7.8667 -0.0000 0.0000 -8.4590 19.6709 24.4385 8.4128 -7.1250 0.0000 -0.0000 -10.5136 55.4324 -2.7141 0.0000 0.0000 0.0000 87.0021 -8.2822 8.9464 -12.6744 20.8083 -2.3363 0.0000 0.0000 6.0140 -25.5261 13.3028 -6.2705 7.1250 -0.0000 -0.0000 1.2537 -15.2997 0.8787
0.00 0.00 0.00 -5.6447 -51.1829 11.5839 0.0000 0.0000 0.0000 -18.3549 -5.2263 -4.9527 6.7845 15.1477 48.0544 0.2274 -7.2154 14.3901 0.0301 1.1194 3.0773 0.0000 0.0000 0.0000 23.4664 14.3946 -30.1773 -2.7472 -10.2741 29.8691 -0.2462 1.5419 -8.9598 -0.0262 1.0441 -2.8702 1.5466 -1.2981 1.6309 5.3183 -1.8251 1.7650 4.6297 -0.9650 1.0282 -2.3588 0.6467 -12.9149 -3.7724 2.2096 31.9928 -0.7698 -0.0048 12.8378 0.0000 0.0000 0.0000 -90.7552 -10.8549 30.1542 22.9811 -34.0681 -7.1277 -0.0000 0.0000 -7.2802 18.9132 24.3336 8.0360 -7.1250 0.0000 -0.0000 -11.2482 55.1753 -2.8366 0.0000 0.0000 0.0000 87.0278 -8.3648 9.5042 -12.9989 21.2856 -2.4529 0.0000 0.0000 4.8845 -26.0721 13.4836 -6.5085 7.1250 -0.0000 -0.0000 0.8932 -15.0350 0.6310
0.00 0.00 0.00 -6.0088 -50.5643 10.5301 0.0000 0.0000 0.0000 -16.1922 -5.3797 -15.9383 11.6602 18.2433 64.9075 0.0827 -7.2785 12.0706 0.0357 -1.2192 -3.3522 0.0000 0.0000 0.0000 25.8458 12.8129 -23.3443 -3.0222 -10.7309 31.3775 -0.6281 1.6017 -14.5085 -0.0103 0.6568 -1.8050 1.4369 -0.5726 1.3374 5.1255 -0.8636 1.7907 4.4806 -0.4803 1.1502 -2.6579 0.4960 -11.8911 -3.8904 2.0636 32.3595 -0.7900 -0.1215 12.7724 -0.0000 0.0000 0.0000 -90.9035 -6.6727 32.2560 20.6469 -31.4139 -5.8648 -0.0000 0.0000 -4.7227 18.0131 23.9513 7.5199 -7.1250 0.0000 -0.0000 -11.9951 54.6156 -2.8645 -0.0000 0.0000 0.0000 86.4051 -7.5038 15.3553 -14.3638 23.2523 -2.9702 0.0000 0.0000 1.2990 -26.9552 11.9016 -5.9871 7.1250 -0.0000 -0.0000 0.1671 -16.6766 0.1121
0.00 0.00 0.00 -6.0924 -48.9675 10.5432 0.0000 0.0000 0.0000 -13.9112 -8.0773 -27.0681 12.7624 18.6947 68.3859 -0.0918 -6.6751 -1.7978 0.1368 -2.3835 -6.5669 0.0000 0.0000 0.0000 27.5512 10.5402 -19.1130 -3.3557 -11.2497 33.1268 -1.2818 1.7403 -20.9028 -0.0013 0.2305 -0.6333 1.0610 0.0360 0.5414 4.9060 -0.0468 1.3213 4.4603 -0.0635 1.0580 -3.0956 0.2678 -10.9967 -4.3105 1.9484 32.6615 -0.8957 -0.2767 12.7158 -0.0000 0.0000 0.0000 -91.1783 -1.4354 30.7232 19.5031 -30.0390 -5.2803 -0.0000 0.0000 -4.1750 17.2379 24.5695 7.3512 -7.1250 0.0000 -0.0000 -13.0746 55.0807 -3.2778 -0.0000 0.0000 0.0000 85.1844 -4.4778 20.5937 -16.1324 25.6998 -3.7032 0.0000 -0.0000 -1.6650 -28.0161 10.0264 -5.2925 7.1250 -0.0000 -0.0000 -0.7111 -18.6553 -0.4463
0.00 0.00 0.00 -1.1788 -17.4437 0.8423 0.0000 0.0000 0.0000 -19.9688 -7.5894 -5.1248 3.3523 11.2447 33.1096 1.2708 -12.5124 -20.7099 0.3489 -3.7952 -10.5011 0.0000 0.0000 0.0000 8.9721 21.1069 -28.5436 -2.3599 -9.5785 27.6224 -0.0724 0.9130 5.5033 -0.0673 1.6734 -4.6038 -2.5997 -0.9491 2.6880 2.2973 -1.3348 2.6080 3.8430 -0.7362 1.2880 1.0222 10.2960 -5.9241 -9.6392 17.7354 32.6842 -1.5773 6.8481 12.9956 -0.0000 0.0000 0.0000 -87.9604 -16.1792 38.1826 25.2043 -36.4121 -8.4109 -0.0000 0.0000 -6.6454 18.4620 24.5186 7.8879 -7.1250 0.0000 -0.0000 -11.7976 55.2714 -3.0056 -0.0000 0.0000 0.0000 88.1384 -10.0900 17.8198 -18.1958 28.4072 -4.6420 0.0000 -0.0000 -1.8880 -26.7019 14.9247 -7.3813 7.1250 -0.0000 -0.0000 0.5835 -13.3673 0.4328
